<svg width="14" height="16" viewBox="0 0 14 16" fill="none" xmlns="http://www.w3.org/2000/svg">
<path d="M13.7859 4.33668H9.75844C9.75844 4.33668 9.83344 4.29918 9.87094 4.27668C10.9734 3.66168 11.1384 2.82918 11.1384 2.38668C11.1384 1.29918 10.1859 0.34668 9.09094 0.34668C8.65594 0.34668 7.82344 0.51168 7.20094 1.60668C7.12594 1.74168 7.05844 1.87668 6.99844 2.02668C6.93844 1.87668 6.87094 1.74168 6.79594 1.60668C6.17344 0.51168 5.34094 0.34668 4.90594 0.34668C3.81094 0.34668 2.85844 1.29918 2.85844 2.38668C2.85844 2.82918 3.02344 3.66168 4.12594 4.27668C4.16344 4.29918 4.20094 4.32168 4.23844 4.33668H0.210938V15.6542H13.7859V4.33668ZM8.15344 2.14668C8.33344 1.81668 8.64844 1.43418 9.09094 1.43418C9.58594 1.43418 10.0509 1.89918 10.0509 2.38668C10.0509 2.83668 9.66094 3.15168 9.33844 3.33168C9.01594 3.51168 8.49094 3.72168 7.64344 3.84168C7.76344 2.99418 7.96594 2.46168 8.15344 2.14668ZM3.94594 2.38668C3.94594 1.89918 4.41094 1.43418 4.90594 1.43418C5.34844 1.43418 5.66344 1.81668 5.84344 2.14668C6.03094 2.46168 6.23344 2.99418 6.35344 3.84168C5.50594 3.72168 4.98094 3.51168 4.65844 3.33168C4.33594 3.15168 3.94594 2.83668 3.94594 2.38668ZM1.29844 14.5667V5.42418H6.45094V14.5667H1.29844ZM12.6984 14.5667H7.54594V5.42418H12.6984V14.5667Z" fill="#008A20"/>
</svg>
