<svg xmlns="http://www.w3.org/2000/svg" fill="none" viewBox="0 0 115 33"><g clip-path="url(#a)"><path fill="#FF4500" d="M16.047.5C7.184.5 0 7.663 0 16.5c0 4.418 1.796 8.418 4.7 11.314l-3.057 3.047c-.606.605-.177 1.639.68 1.639h13.724c8.862 0 16.046-7.163 16.046-16S24.909.5 16.046.5Z"/><g clip-path="url(#b)"><path fill="url(#c)" d="M25.143 20.084a3.742 3.742 0 0 0 3.747-3.736 3.742 3.742 0 0 0-3.747-3.737 3.742 3.742 0 0 0-3.747 3.737 3.742 3.742 0 0 0 3.747 3.736Z"/><path fill="url(#d)" d="M6.95 20.084a3.742 3.742 0 0 0 3.748-3.736A3.742 3.742 0 0 0 6.95 12.61a3.742 3.742 0 0 0-3.748 3.737 3.742 3.742 0 0 0 3.748 3.736Z"/><path fill="url(#e)" d="M16.056 27.558c5.908 0 10.698-3.582 10.698-8 0-4.419-4.79-8-10.698-8s-10.698 3.581-10.698 8c0 4.418 4.79 8 10.698 8Z"/><path fill="#842123" d="M12.893 18.78c-.062 1.355-.965 1.847-2.015 1.847-1.051 0-1.852-.694-1.789-2.05.063-1.355.965-2.252 2.016-2.252 1.05 0 1.851 1.099 1.788 2.455ZM23.023 18.578c.062 1.355-.738 2.049-1.789 2.049-1.05 0-1.952-.492-2.015-1.847-.062-1.356.738-2.455 1.788-2.455s1.953.897 2.016 2.253Z"/><path fill="url(#f)" d="M12.894 18.898c-.06 1.27-.903 1.729-1.886 1.729-.983 0-1.733-.69-1.674-1.957.06-1.27.903-2.099 1.886-2.099.983 0 1.732 1.059 1.674 2.327Z"/><path fill="url(#g)" d="M19.218 18.898c.06 1.27.903 1.729 1.886 1.729.983 0 1.733-.69 1.674-1.957-.06-1.27-.903-2.099-1.886-2.099-.983 0-1.732 1.059-1.674 2.327Z"/><path fill="#FFC49C" d="M11.832 18.193c.23 0 .416-.203.416-.453s-.186-.453-.416-.453c-.23 0-.416.203-.416.453s.186.453.416.453ZM21.725 18.193c.23 0 .416-.203.416-.453s-.187-.453-.416-.453c-.23 0-.416.203-.416.453s.186.453.416.453Z"/><path fill="#BBCFDA" d="M16.056 21.531c-1.327 0-2.598.064-3.773.18a.296.296 0 0 0-.25.407c.658 1.539 2.212 2.62 4.023 2.62 1.811 0 3.365-1.081 4.023-2.62a.296.296 0 0 0-.25-.407 38.423 38.423 0 0 0-3.773-.18Z"/><path fill="#fff" d="M16.056 21.825c-1.322 0-2.59.065-3.761.183a.3.3 0 0 0-.25.413 4.348 4.348 0 0 0 4.011 2.662 4.348 4.348 0 0 0 4.011-2.662.3.3 0 0 0-.25-.413 37.61 37.61 0 0 0-3.76-.183Z"/><path fill="url(#h)" d="M16.056 21.672c-1.302 0-2.549.064-3.703.18a.296.296 0 0 0-.245.407 4.28 4.28 0 0 0 3.949 2.62 4.28 4.28 0 0 0 3.948-2.62.296.296 0 0 0-.245-.407 37.01 37.01 0 0 0-3.703-.18h-.001Z"/><path fill="url(#i)" d="M21.915 10.47a2.652 2.652 0 0 0 2.655-2.648 2.652 2.652 0 0 0-2.655-2.648 2.652 2.652 0 0 0-2.656 2.648 2.652 2.652 0 0 0 2.656 2.648Z"/><path fill="url(#j)" d="M16.018 11.895c-.318 0-.576-.133-.576-.338 0-2.372 1.935-4.301 4.314-4.301a.575.575 0 1 1 0 1.148 3.162 3.162 0 0 0-3.163 3.154c0 .204-.258.337-.576.337h.001Z"/><path fill="#FF6101" d="M12.195 19.526c0 .49-.524.71-1.17.71-.647 0-1.17-.22-1.17-.71 0-.491.523-.89 1.17-.89.646 0 1.17.399 1.17.89ZM22.257 19.526c0 .49-.524.71-1.17.71-.647 0-1.17-.22-1.17-.71 0-.491.523-.89 1.17-.89.646 0 1.17.399 1.17.89Z"/></g><path fill="#FF4500" d="m49.272 12.044-1.785 4.231c-.224-.112-.759-.238-1.264-.238s-1.012.126-1.504.364c-.97.49-1.686 1.471-1.686 2.886v7.748h-4.441V11.958h4.315v2.116h.084c1.012-1.346 2.557-2.34 4.568-2.34.73 0 1.433.141 1.714.309l-.001.001ZM48.413 19.54c0-4.357 2.994-7.804 7.476-7.804 4.061 0 6.97 2.957 6.97 7.118 0 .73-.07 1.415-.224 2.074H52.46c.464 1.584 1.841 2.817 3.906 2.817 1.138 0 2.755-.406 3.626-1.079l1.377 3.307c-1.28.868-3.232 1.289-4.946 1.289-4.792 0-8.01-3.083-8.01-7.72v-.002Zm3.963-1.386h6.393c0-1.934-1.321-2.957-2.938-2.957-1.827 0-3.063 1.176-3.457 2.957h.002ZM100.964 5.186c1.49 0 2.711 1.22 2.711 2.704a2.718 2.718 0 0 1-2.711 2.703 2.719 2.719 0 0 1-2.712-2.703 2.719 2.719 0 0 1 2.712-2.704Zm2.22 21.85h-4.441V11.96h4.441v15.077ZM75.18 5.458l-.013 7.93h-.084c-1.223-1.162-2.544-1.64-4.272-1.64-4.258 0-7.083 3.42-7.083 7.749s2.642 7.763 6.942 7.763c1.8 0 3.499-.616 4.596-2.018h.126v1.794h4.23V5.458H75.18Zm.212 17.984h-.147l-.991-1.026c-.645.641-1.528 1.026-2.559 1.026-2.175 0-3.696-1.715-3.696-3.94 0-2.226 1.521-3.941 3.696-3.941 2.175 0 3.697 1.715 3.697 3.94v3.941ZM92.141 5.458l-.013 7.93h-.085c-1.223-1.162-2.544-1.64-4.272-1.64-4.258 0-7.082 3.42-7.082 7.749s2.641 7.763 6.941 7.763c1.8 0 3.5-.616 4.596-2.018h.126v1.794h4.23V5.458h-4.44Zm.19 17.984h-.147l-.99-1.026c-.646.641-1.528 1.026-2.56 1.026-2.174 0-3.696-1.715-3.696-3.94 0-2.226 1.522-3.941 3.697-3.941s3.696 1.715 3.696 3.94v3.941ZM111.797 11.96h3.246v3.768h-3.246v11.309h-4.441V15.729h-3.232v-3.77h3.232V7.863h4.441v4.098Z"/></g><defs><radialGradient id="c" cx="0" cy="0" r="1" gradientTransform="matrix(7.57455 0 0 6.57076 25.222 14.123)" gradientUnits="userSpaceOnUse"><stop stop-color="#FEFFFF"/><stop offset=".4" stop-color="#FEFFFF"/><stop offset=".51" stop-color="#F9FCFC"/><stop offset=".62" stop-color="#EDF3F5"/><stop offset=".7" stop-color="#DEE9EC"/><stop offset=".72" stop-color="#D8E4E8"/><stop offset=".76" stop-color="#CCD8DF"/><stop offset=".8" stop-color="#C8D5DD"/><stop offset=".83" stop-color="#CCD6DE"/><stop offset=".85" stop-color="#D8DBE2"/><stop offset=".88" stop-color="#EDE3E9"/><stop offset=".9" stop-color="#FFEBEF"/></radialGradient><radialGradient id="d" cx="0" cy="0" r="1" gradientTransform="matrix(7.57455 0 0 6.57076 7.03 6.334)" gradientUnits="userSpaceOnUse"><stop stop-color="#FEFFFF"/><stop offset=".4" stop-color="#FEFFFF"/><stop offset=".51" stop-color="#F9FCFC"/><stop offset=".62" stop-color="#EDF3F5"/><stop offset=".7" stop-color="#DEE9EC"/><stop offset=".72" stop-color="#D8E4E8"/><stop offset=".76" stop-color="#CCD8DF"/><stop offset=".8" stop-color="#C8D5DD"/><stop offset=".83" stop-color="#CCD6DE"/><stop offset=".85" stop-color="#D8DBE2"/><stop offset=".88" stop-color="#EDE3E9"/><stop offset=".9" stop-color="#FFEBEF"/></radialGradient><radialGradient id="e" cx="0" cy="0" r="1" gradientTransform="matrix(22.8479 0 0 15.9471 16.287 13.169)" gradientUnits="userSpaceOnUse"><stop stop-color="#FEFFFF"/><stop offset=".4" stop-color="#FEFFFF"/><stop offset=".51" stop-color="#F9FCFC"/><stop offset=".62" stop-color="#EDF3F5"/><stop offset=".7" stop-color="#DEE9EC"/><stop offset=".72" stop-color="#D8E4E8"/><stop offset=".76" stop-color="#CCD8DF"/><stop offset=".8" stop-color="#C8D5DD"/><stop offset=".83" stop-color="#CCD6DE"/><stop offset=".85" stop-color="#D8DBE2"/><stop offset=".88" stop-color="#EDE3E9"/><stop offset=".9" stop-color="#FFEBEF"/></radialGradient><radialGradient id="f" cx="0" cy="0" r="1" gradientTransform="matrix(1.90894 0 0 2.77897 11.209 19.46)" gradientUnits="userSpaceOnUse"><stop stop-color="#F60"/><stop offset=".5" stop-color="#FF4500"/><stop offset=".7" stop-color="#FC4301"/><stop offset=".82" stop-color="#F43F07"/><stop offset=".92" stop-color="#E53812"/><stop offset="1" stop-color="#D4301F"/></radialGradient><radialGradient id="g" cx="0" cy="0" r="1" gradientTransform="matrix(-1.90894 0 0 -2.77897 20.903 19.46)" gradientUnits="userSpaceOnUse"><stop stop-color="#F60"/><stop offset=".5" stop-color="#FF4500"/><stop offset=".7" stop-color="#FC4301"/><stop offset=".82" stop-color="#F43F07"/><stop offset=".92" stop-color="#E53812"/><stop offset="1" stop-color="#D4301F"/></radialGradient><radialGradient id="h" cx="0" cy="0" r="1" gradientTransform="matrix(6.73121 0 0 4.42973 16.036 25.311)" gradientUnits="userSpaceOnUse"><stop stop-color="#172E35"/><stop offset=".29" stop-color="#0E1C21"/><stop offset=".73" stop-color="#030708"/><stop offset="1"/></radialGradient><radialGradient id="i" cx="0" cy="0" r="1" gradientTransform="matrix(5.90868 0 0 5.77372 21.972 5.38)" gradientUnits="userSpaceOnUse"><stop stop-color="#FEFFFF"/><stop offset=".4" stop-color="#FEFFFF"/><stop offset=".51" stop-color="#F9FCFC"/><stop offset=".62" stop-color="#EDF3F5"/><stop offset=".7" stop-color="#DEE9EC"/><stop offset=".72" stop-color="#D8E4E8"/><stop offset=".76" stop-color="#CCD8DF"/><stop offset=".8" stop-color="#C8D5DD"/><stop offset=".83" stop-color="#CCD6DE"/><stop offset=".85" stop-color="#D8DBE2"/><stop offset=".88" stop-color="#EDE3E9"/><stop offset=".9" stop-color="#FFEBEF"/></radialGradient><radialGradient id="j" cx="0" cy="0" r="1" gradientTransform="matrix(4.84307 0 0 4.82904 19.51 11.326)" gradientUnits="userSpaceOnUse"><stop offset=".48" stop-color="#7A9299"/><stop offset=".67" stop-color="#172E35"/><stop offset=".75"/><stop offset=".82" stop-color="#172E35"/></radialGradient><clipPath id="a"><path fill="#fff" d="M0 .5h115v32H0z"/></clipPath><clipPath id="b"><path fill="#fff" d="M3.203 5.174H28.89v22.383H3.203z"/></clipPath></defs></svg>