<svg width="16" height="12" viewBox="0 0 16 12" fill="none" xmlns="http://www.w3.org/2000/svg">
<path fill-rule="evenodd" clip-rule="evenodd" d="M2.863 7.644L1 7.25H0.5C0.367392 7.25 0.240215 7.19732 0.146447 7.10355C0.0526785 7.00979 0 6.88261 0 6.75V3.75C0 3.61739 0.0526785 3.49021 0.146447 3.39645C0.240215 3.30268 0.367392 3.25 0.5 3.25H1L14 0.5H16V10H14L10.146 9.185L10.172 9.193C9.89926 10.0913 9.29947 10.8547 8.49115 11.3322C7.68284 11.8098 6.7248 11.9667 5.80636 11.7721C4.88792 11.5775 4.07589 11.0455 3.53073 10.2811C2.98557 9.51678 2.74794 8.57576 2.863 7.644ZM4.34 7.957C4.30786 8.49525 4.47 9.02715 4.79692 9.45594C5.12384 9.88474 5.59382 10.1819 6.12136 10.2935C6.6489 10.405 7.19895 10.3235 7.67146 10.0637C8.14396 9.80394 8.50752 9.38319 8.696 8.878L4.34 7.957ZM1.5 4.677L14.157 2H14.5V8.5H14.157L1.5 5.823V4.677Z" fill="#1E1E1E"/>
</svg>
