<svg width="17" height="17" viewBox="0 0 17 17" fill="none" xmlns="http://www.w3.org/2000/svg">
<path d="M0.75 0C0.551088 0 0.360322 0.0790175 0.21967 0.21967C0.0790175 0.360322 0 0.551088 0 0.75V8.576C0 8.776 0.0799998 8.966 0.22 9.106L6.94 15.822C7.15494 16.0375 7.41028 16.2084 7.6914 16.325C7.97251 16.4416 8.27387 16.5015 8.57821 16.5014C8.88254 16.5013 9.18387 16.4412 9.46491 16.3244C9.74595 16.2077 10.0012 16.0366 10.216 15.821L15.826 10.21L15.295 9.68L15.827 10.208C16.2581 9.77426 16.5001 9.18755 16.5001 8.576C16.5001 7.96445 16.2581 7.37774 15.827 6.944L9.104 0.22C8.96348 0.0793073 8.77285 0.000175052 8.574 0H0.75ZM15 8.576C15.0001 8.79097 14.9153 8.99728 14.764 9.15L9.154 14.761C9.07838 14.8369 8.98853 14.8971 8.8896 14.9381C8.79068 14.9792 8.68461 15.0003 8.5775 15.0003C8.47039 15.0003 8.36432 14.9792 8.2654 14.9381C8.16647 14.8971 8.07662 14.8369 8.001 14.761L1.5 8.264V1.5H8.263L14.763 8.002C14.9146 8.15462 14.9997 8.36091 15 8.576ZM4.75 5.75C5.01522 5.75 5.26957 5.64464 5.45711 5.45711C5.64464 5.26957 5.75 5.01522 5.75 4.75C5.75 4.48478 5.64464 4.23043 5.45711 4.04289C5.26957 3.85536 5.01522 3.75 4.75 3.75C4.48478 3.75 4.23043 3.85536 4.04289 4.04289C3.85536 4.23043 3.75 4.48478 3.75 4.75C3.75 5.01522 3.85536 5.26957 4.04289 5.45711C4.23043 5.64464 4.48478 5.75 4.75 5.75Z" fill="#1E1E1E"/>
</svg>
